<svg width="89" height="12" viewBox="0 0 89 12" fill="none" xmlns="http://www.w3.org/2000/svg">
<path d="M3.72685 9.11927H2.71821V1.43177H0V0.54541H6.44506V1.43177H3.72685V9.11927Z" fill="#333333"/>
<path d="M11.5396 9.11943L11.3515 8.19897H11.3003C10.9754 8.60806 10.6506 8.88079 10.3429 9.01716C10.0181 9.15352 9.62488 9.23875 9.1462 9.23875C8.51366 9.23875 8.00079 9.06829 7.64178 8.74443C7.28277 8.42057 7.11182 7.94329 7.11182 7.3467C7.11182 6.05125 8.15465 5.36943 10.2403 5.30125L11.3344 5.26716V4.87511C11.3344 4.36375 11.2319 4.00579 11.0096 3.76716C10.7703 3.51147 10.4284 3.39216 9.9497 3.39216C9.41973 3.39216 8.80429 3.56261 8.12046 3.88647L7.82983 3.13647C8.15465 2.96602 8.49656 2.82966 8.87267 2.72738C9.24877 2.62511 9.62488 2.57397 10.0181 2.57397C10.7874 2.57397 11.3515 2.74443 11.7276 3.08534C12.1037 3.42625 12.2747 3.9717 12.2747 4.7217V9.10238H11.5396V9.11943ZM9.35135 8.43761C9.96679 8.43761 10.4284 8.26716 10.7874 7.94329C11.1293 7.61943 11.3003 7.14216 11.3003 6.54556V5.96602L10.3258 6.00011C9.5394 6.0342 8.97524 6.15352 8.63333 6.35807C8.29142 6.57966 8.12046 6.90352 8.12046 7.3467C8.12046 7.70466 8.22303 7.96034 8.44528 8.14784C8.66752 8.33534 8.95815 8.43761 9.35135 8.43761Z" fill="#333333"/>
<path d="M15.2494 9.11932H14.2749V0H15.2494V9.11932Z" fill="#333333"/>
<path d="M18.2923 9.11932H17.3179V0H18.2923V9.11932Z" fill="#333333"/>
<path d="M20.2925 0.954612C20.2925 0.733021 20.3438 0.562567 20.4634 0.460294C20.566 0.358021 20.7028 0.306885 20.8737 0.306885C21.0276 0.306885 21.1644 0.358021 21.284 0.460294C21.4037 0.562567 21.455 0.733021 21.455 0.954612C21.455 1.1762 21.4037 1.32961 21.284 1.44893C21.1644 1.5512 21.0276 1.60234 20.8737 1.60234C20.7028 1.60234 20.566 1.5512 20.4634 1.44893C20.3438 1.32961 20.2925 1.1762 20.2925 0.954612ZM21.3353 9.11938H20.3609V2.69325H21.3353V9.11938Z" fill="#333333"/>
<path d="M27.8147 9.11923V4.96014C27.8147 4.43173 27.6951 4.03968 27.4557 3.784C27.2164 3.52832 26.8403 3.409 26.3445 3.409C25.6778 3.409 25.182 3.5965 24.8572 3.95446C24.5495 4.31241 24.3956 4.909 24.3956 5.76128V9.13628H23.4211V2.69309H24.2075L24.3614 3.57946H24.4127C24.6178 3.25559 24.8914 3.01696 25.2504 2.8465C25.6094 2.67605 26.0197 2.59082 26.4471 2.59082C27.2164 2.59082 27.8147 2.77832 28.1908 3.15332C28.584 3.52832 28.7721 4.12491 28.7721 4.94309V9.13628H27.8147V9.11923Z" fill="#333333"/>
<path d="M35.2 9.11923V4.96014C35.2 4.43173 35.0803 4.03968 34.841 3.784C34.6016 3.52832 34.2255 3.409 33.7298 3.409C33.063 3.409 32.5673 3.5965 32.2424 3.95446C31.9347 4.31241 31.7808 4.909 31.7808 5.76128V9.13628H30.8064V2.69309H31.5928L31.7467 3.57946H31.7979C32.0031 3.25559 32.2766 3.01696 32.6356 2.8465C32.9946 2.67605 33.4049 2.59082 33.8323 2.59082C34.6016 2.59082 35.2 2.77832 35.5761 3.15332C35.9693 3.52832 36.1573 4.12491 36.1573 4.94309V9.13628H35.2V9.11923Z" fill="#333333"/>
<path d="M41.457 9.11927V0.54541H42.4486V8.21587H46.2438V9.11927H41.457Z" fill="#333333"/>
<path d="M50.2784 9.23875C49.321 9.23875 48.5688 8.94897 48.0218 8.36943C47.4747 7.78988 47.2012 6.98875 47.2012 5.96602C47.2012 4.92625 47.4576 4.10807 47.9705 3.49443C48.4833 2.88079 49.1672 2.57397 50.022 2.57397C50.8254 2.57397 51.4751 2.8467 51.9367 3.37511C52.3982 3.90352 52.6376 4.60238 52.6376 5.4717V6.08534H48.1927C48.2098 6.83534 48.3979 7.41488 48.774 7.80693C49.133 8.19897 49.6458 8.38647 50.3126 8.38647C51.0135 8.38647 51.6973 8.25011 52.3641 7.96034V8.82966C52.0221 8.98306 51.6973 9.08534 51.3896 9.15352C51.0819 9.20466 50.7058 9.23875 50.2784 9.23875ZM50.0049 3.39216C49.492 3.39216 49.0817 3.56261 48.774 3.90352C48.4662 4.24443 48.2782 4.70466 48.2269 5.30125H51.5948C51.5948 4.68761 51.458 4.21034 51.1845 3.88647C50.9109 3.56261 50.5177 3.39216 50.0049 3.39216Z" fill="#333333"/>
<path d="M58.262 9.11923L58.074 8.19877H58.0227C57.6979 8.60787 57.373 8.88059 57.0653 9.01696C56.7405 9.15332 56.3473 9.23855 55.8686 9.23855C55.2361 9.23855 54.7232 9.06809 54.3642 8.74423C54.0052 8.42037 53.8171 7.94309 53.8171 7.3465C53.8171 6.05105 54.86 5.36923 56.9456 5.30105L58.0398 5.26696V4.87491C58.0398 4.36355 57.9372 4.00559 57.7149 3.76696C57.4927 3.52832 57.1508 3.409 56.6721 3.409C56.1422 3.409 55.5267 3.57946 54.8429 3.90332L54.5352 3.15332C54.86 2.98287 55.2019 2.8465 55.578 2.74423C55.9541 2.64196 56.3302 2.59082 56.7234 2.59082C57.4927 2.59082 58.0569 2.76127 58.433 3.10218C58.8091 3.44309 58.98 3.98855 58.98 4.73855V9.11923H58.262ZM56.0567 8.43741C56.6721 8.43741 57.1337 8.26696 57.4927 7.94309C57.8346 7.61923 58.0056 7.14196 58.0056 6.54537V5.96582L57.0311 5.99991C56.2618 6.034 55.6977 6.15332 55.3558 6.35787C55.0138 6.57946 54.8429 6.90332 54.8429 7.3465C54.8429 7.70446 54.9455 7.96014 55.1677 8.14764C55.3728 8.33514 55.6806 8.43741 56.0567 8.43741Z" fill="#333333"/>
<path d="M63.9378 2.57397C64.2284 2.57397 64.4848 2.59102 64.7071 2.64216L64.5703 3.54557C64.2968 3.49443 64.0745 3.46034 63.8694 3.46034C63.3565 3.46034 62.8949 3.66488 62.5359 4.09102C62.1769 4.51716 61.9889 5.04557 61.9889 5.6592V9.10238H61.0144V2.69329H61.8179L61.9376 3.88647H61.9889C62.2282 3.46034 62.5188 3.15352 62.8607 2.91488C63.1685 2.69329 63.5275 2.57397 63.9378 2.57397Z" fill="#333333"/>
<path d="M70.3145 9.11923V4.96014C70.3145 4.43173 70.1948 4.03968 69.9555 3.784C69.7161 3.52832 69.34 3.409 68.8443 3.409C68.1775 3.409 67.6818 3.5965 67.3569 3.95446C67.0492 4.31241 66.8954 4.909 66.8954 5.76128V9.13628H65.9209V2.69309H66.7073L66.8612 3.57946H66.9124C67.1176 3.25559 67.3911 3.01696 67.7501 2.8465C68.1091 2.67605 68.5194 2.59082 68.9468 2.59082C69.7161 2.59082 70.3145 2.77832 70.6906 3.15332C71.0838 3.52832 71.2718 4.12491 71.2718 4.94309V9.13628H70.3145V9.11923Z" fill="#333333"/>
<path d="M73.2207 0.954612C73.2207 0.733021 73.272 0.562567 73.3917 0.460294C73.4942 0.358021 73.631 0.306885 73.8019 0.306885C73.9558 0.306885 74.0926 0.358021 74.2122 0.460294C74.3319 0.562567 74.3832 0.733021 74.3832 0.954612C74.3832 1.1762 74.3319 1.32961 74.2122 1.44893C74.0926 1.5512 73.9558 1.60234 73.8019 1.60234C73.631 1.60234 73.4942 1.5512 73.3917 1.44893C73.272 1.32961 73.2207 1.1762 73.2207 0.954612ZM74.2806 9.11938H73.3062V2.69325H74.2806V9.11938Z" fill="#333333"/>
<path d="M80.7427 9.11923V4.96014C80.7427 4.43173 80.623 4.03968 80.3837 3.784C80.1444 3.52832 79.7853 3.409 79.2725 3.409C78.6057 3.409 78.11 3.5965 77.7852 3.95446C77.4774 4.31241 77.3236 4.909 77.3236 5.76128V9.13628H76.3491V2.69309H77.1355L77.2894 3.57946H77.3407C77.5458 3.25559 77.8193 3.01696 78.1784 2.8465C78.5374 2.67605 78.9477 2.59082 79.3751 2.59082C80.1444 2.59082 80.7427 2.77832 81.1188 3.15332C81.512 3.52832 81.7001 4.12491 81.7001 4.94309V9.13628H80.7427V9.11923Z" fill="#333333"/>
<path d="M89.0001 2.69329V3.30693L87.8034 3.44329C87.906 3.57966 88.0085 3.76716 88.094 3.9717C88.1795 4.19329 88.2308 4.44897 88.2308 4.7217C88.2308 5.35238 88.0085 5.8467 87.5812 6.2217C87.1538 6.5967 86.5554 6.7842 85.8032 6.7842C85.6152 6.7842 85.4271 6.76716 85.2562 6.73307C84.8459 6.95466 84.6407 7.22738 84.6407 7.55125C84.6407 7.7217 84.7091 7.85807 84.863 7.94329C84.9997 8.02852 85.2562 8.06261 85.6152 8.06261H86.7606C87.4615 8.06261 87.9915 8.21602 88.3676 8.50579C88.7437 8.79557 88.9317 9.2217 88.9317 9.7842C88.9317 10.5001 88.6411 11.0285 88.0769 11.4035C87.5128 11.7785 86.6751 11.966 85.581 11.966C84.7433 11.966 84.0936 11.8126 83.6321 11.5058C83.1705 11.199 82.9482 10.7558 82.9482 10.1762C82.9482 9.7842 83.0679 9.44329 83.3243 9.17057C83.5808 8.88079 83.9227 8.69329 84.3843 8.59102C84.2133 8.52284 84.0766 8.40352 83.974 8.25011C83.8372 8.11375 83.7688 7.92625 83.7688 7.7217C83.7688 7.48307 83.8372 7.27852 83.9569 7.10807C84.0766 6.93761 84.2817 6.76716 84.5552 6.5967C84.2304 6.46034 83.9569 6.2217 83.7346 5.89784C83.5295 5.57397 83.4269 5.19897 83.4269 4.77284C83.4269 4.07397 83.6321 3.52852 84.0595 3.15352C84.4868 2.77852 85.0852 2.57397 85.8545 2.57397C86.1964 2.57397 86.487 2.60807 86.7606 2.69329H89.0001ZM83.8714 10.1933C83.8714 10.5342 84.0253 10.8069 84.3159 10.9774C84.6065 11.1649 85.0339 11.2501 85.581 11.2501C86.4016 11.2501 86.9999 11.1308 87.3931 10.8922C87.7863 10.6535 87.9915 10.3126 87.9915 9.90352C87.9915 9.56261 87.8889 9.30693 87.6666 9.18761C87.4444 9.05125 87.0512 8.98307 86.4528 8.98307H85.2903C84.8459 8.98307 84.5039 9.08534 84.2646 9.30693C84.0253 9.52852 83.8714 9.80125 83.8714 10.1933ZM84.3843 4.75579C84.3843 5.19897 84.5039 5.53988 84.7604 5.77852C85.0168 6.01716 85.3758 6.11943 85.8203 6.11943C86.7777 6.11943 87.2563 5.6592 87.2563 4.73875C87.2563 3.76716 86.7777 3.28988 85.8032 3.28988C85.3416 3.28988 84.9997 3.4092 84.7433 3.66488C84.521 3.90352 84.3843 4.26147 84.3843 4.75579Z" fill="#333333"/>
</svg>
