<svg width="89" height="82" viewBox="0 0 89 82" fill="none" xmlns="http://www.w3.org/2000/svg">
<path d="M30.7483 62H17.2694V10.9351H0V0H48V10.9351H30.7306V62H30.7483Z" fill="#333333"/>
<path d="M51 62V0H64.0374V51.1379H89V62H51Z" fill="#FDCC00"/>
<path d="M3.72685 79.1193H2.71821V71.4318H0V70.5454H6.44506V71.4318H3.72685V79.1193Z" fill="#333333"/>
<path d="M11.5396 79.1193L11.3515 78.1989H11.3002C10.9754 78.6079 10.6506 78.8807 10.3429 79.017C10.0181 79.1534 9.62486 79.2386 9.14618 79.2386C8.51365 79.2386 8.00078 79.0682 7.64177 78.7443C7.28276 78.4204 7.1118 77.9432 7.1118 77.3466C7.1118 76.0511 8.15464 75.3693 10.2403 75.3011L11.3344 75.267V74.875C11.3344 74.3636 11.2319 74.0057 11.0096 73.767C10.7703 73.5114 10.4284 73.392 9.94968 73.392C9.41972 73.392 8.80427 73.5625 8.12045 73.8864L7.82982 73.1364C8.15464 72.9659 8.49655 72.8295 8.87265 72.7273C9.24876 72.625 9.62486 72.5739 10.0181 72.5739C10.7874 72.5739 11.3515 72.7443 11.7276 73.0852C12.1037 73.4261 12.2747 73.9716 12.2747 74.7216V79.1023H11.5396V79.1193ZM9.35133 78.4375C9.96678 78.4375 10.4284 78.267 10.7874 77.9432C11.1293 77.6193 11.3002 77.142 11.3002 76.5454V75.9659L10.3258 76C9.53938 76.0341 8.97523 76.1534 8.63332 76.3579C8.2914 76.5795 8.12045 76.9034 8.12045 77.3466C8.12045 77.7045 8.22302 77.9602 8.44526 78.1477C8.66751 78.3352 8.95813 78.4375 9.35133 78.4375Z" fill="#333333"/>
<path d="M15.2493 79.1193H14.2749V70H15.2493V79.1193Z" fill="#333333"/>
<path d="M18.2924 79.1193H17.3179V70H18.2924V79.1193Z" fill="#333333"/>
<path d="M20.2925 70.9546C20.2925 70.733 20.3438 70.5625 20.4635 70.4602C20.5661 70.358 20.7028 70.3068 20.8738 70.3068C21.0277 70.3068 21.1644 70.358 21.2841 70.4602C21.4038 70.5625 21.455 70.733 21.455 70.9546C21.455 71.1761 21.4038 71.3296 21.2841 71.4489C21.1644 71.5511 21.0277 71.6023 20.8738 71.6023C20.7028 71.6023 20.5661 71.5511 20.4635 71.4489C20.3438 71.3296 20.2925 71.1761 20.2925 70.9546ZM21.3354 79.1193H20.3609V72.6932H21.3354V79.1193Z" fill="#333333"/>
<path d="M27.8146 79.1193V74.9602C27.8146 74.4318 27.695 74.0398 27.4556 73.7841C27.2163 73.5284 26.8402 73.4091 26.3444 73.4091C25.6777 73.4091 25.1819 73.5966 24.8571 73.9545C24.5494 74.3125 24.3955 74.9091 24.3955 75.7614V79.1364H23.4211V72.6932H24.2075L24.3613 73.5795H24.4126C24.6177 73.2557 24.8913 73.017 25.2503 72.8466C25.6093 72.6761 26.0196 72.5909 26.447 72.5909C27.2163 72.5909 27.8146 72.7784 28.1907 73.1534C28.5839 73.5284 28.772 74.125 28.772 74.9432V79.1364H27.8146V79.1193Z" fill="#333333"/>
<path d="M35.2 79.1193V74.9602C35.2 74.4318 35.0803 74.0398 34.841 73.7841C34.6016 73.5284 34.2255 73.4091 33.7297 73.4091C33.063 73.4091 32.5672 73.5966 32.2424 73.9545C31.9347 74.3125 31.7808 74.9091 31.7808 75.7614V79.1364H30.8064V72.6932H31.5928L31.7466 73.5795H31.7979C32.0031 73.2557 32.2766 73.017 32.6356 72.8466C32.9946 72.6761 33.4049 72.5909 33.8323 72.5909C34.6016 72.5909 35.2 72.7784 35.5761 73.1534C35.9693 73.5284 36.1573 74.125 36.1573 74.9432V79.1364H35.2V79.1193Z" fill="#333333"/>
<path d="M41.457 79.1193V70.5454H42.4485V78.2159H46.2438V79.1193H41.457V79.1193Z" fill="#333333"/>
<path d="M50.2783 79.2386C49.321 79.2386 48.5688 78.9489 48.0217 78.3693C47.4746 77.7898 47.2011 76.9886 47.2011 75.9659C47.2011 74.9261 47.4575 74.1079 47.9704 73.4943C48.4833 72.8807 49.1671 72.5739 50.0219 72.5739C50.8254 72.5739 51.475 72.8466 51.9366 73.375C52.3982 73.9034 52.6375 74.6023 52.6375 75.4716V76.0852H48.1927C48.2098 76.8352 48.3978 77.4148 48.7739 77.8068C49.1329 78.1989 49.6458 78.3864 50.3125 78.3864C51.0134 78.3864 51.6973 78.25 52.364 77.9602V78.8295C52.0221 78.9829 51.6973 79.0852 51.3895 79.1534C51.0818 79.2045 50.7057 79.2386 50.2783 79.2386ZM50.0048 73.392C49.4919 73.392 49.0816 73.5625 48.7739 73.9034C48.4662 74.2443 48.2781 74.7045 48.2268 75.3011H51.5947C51.5947 74.6875 51.4579 74.2102 51.1844 73.8864C50.9109 73.5625 50.5177 73.392 50.0048 73.392Z" fill="#333333"/>
<path d="M58.262 79.1193L58.074 78.1989H58.0227C57.6979 78.608 57.373 78.8807 57.0653 79.017C56.7405 79.1534 56.3473 79.2386 55.8686 79.2386C55.2361 79.2386 54.7232 79.0682 54.3642 78.7443C54.0052 78.4205 53.8171 77.9432 53.8171 77.3466C53.8171 76.0511 54.86 75.3693 56.9456 75.3011L58.0398 75.267V74.875C58.0398 74.3636 57.9372 74.0057 57.7149 73.767C57.4927 73.5284 57.1508 73.4091 56.6721 73.4091C56.1422 73.4091 55.5267 73.5795 54.8429 73.9034L54.5352 73.1534C54.86 72.983 55.2019 72.8466 55.578 72.7443C55.9541 72.642 56.3302 72.5909 56.7234 72.5909C57.4927 72.5909 58.0569 72.7614 58.433 73.1023C58.8091 73.4432 58.98 73.9886 58.98 74.7386V79.1193H58.262ZM56.0567 78.4375C56.6721 78.4375 57.1337 78.267 57.4927 77.9432C57.8346 77.6193 58.0056 77.142 58.0056 76.5455V75.9659L57.0311 76C56.2618 76.0341 55.6977 76.1534 55.3558 76.358C55.0138 76.5795 54.8429 76.9034 54.8429 77.3466C54.8429 77.7045 54.9455 77.9602 55.1677 78.1477C55.3728 78.3352 55.6806 78.4375 56.0567 78.4375Z" fill="#333333"/>
<path d="M63.9378 72.5739C64.2284 72.5739 64.4848 72.5909 64.7071 72.642L64.5703 73.5454C64.2968 73.4943 64.0745 73.4602 63.8694 73.4602C63.3565 73.4602 62.8949 73.6648 62.5359 74.0909C62.1769 74.517 61.9889 75.0454 61.9889 75.6591V79.1023H61.0144V72.6932H61.8179L61.9376 73.8864H61.9889C62.2282 73.4602 62.5188 73.1534 62.8607 72.9148C63.1685 72.6932 63.5275 72.5739 63.9378 72.5739Z" fill="#333333"/>
<path d="M70.3145 79.1193V74.9602C70.3145 74.4318 70.1948 74.0398 69.9554 73.7841C69.7161 73.5284 69.34 73.4091 68.8442 73.4091C68.1775 73.4091 67.6817 73.5966 67.3569 73.9545C67.0492 74.3125 66.8953 74.9091 66.8953 75.7614V79.1364H65.9209V72.6932H66.7073L66.8611 73.5795H66.9124C67.1176 73.2557 67.3911 73.017 67.7501 72.8466C68.1091 72.6761 68.5194 72.5909 68.9468 72.5909C69.7161 72.5909 70.3144 72.7784 70.6906 73.1534C71.0838 73.5284 71.2718 74.125 71.2718 74.9432V79.1364H70.3145V79.1193Z" fill="#333333"/>
<path d="M73.2207 70.9546C73.2207 70.733 73.272 70.5625 73.3917 70.4602C73.4942 70.358 73.631 70.3068 73.8019 70.3068C73.9558 70.3068 74.0926 70.358 74.2122 70.4602C74.3319 70.5625 74.3832 70.733 74.3832 70.9546C74.3832 71.1761 74.3319 71.3296 74.2122 71.4489C74.0926 71.5511 73.9558 71.6023 73.8019 71.6023C73.631 71.6023 73.4942 71.5511 73.3917 71.4489C73.272 71.3296 73.2207 71.1761 73.2207 70.9546ZM74.2806 79.1193H73.3062V72.6932H74.2806V79.1193Z" fill="#333333"/>
<path d="M80.7428 79.1193V74.9602C80.7428 74.4318 80.6231 74.0398 80.3838 73.7841C80.1445 73.5284 79.7854 73.4091 79.2726 73.4091C78.6058 73.4091 78.1101 73.5966 77.7852 73.9545C77.4775 74.3125 77.3237 74.9091 77.3237 75.7614V79.1364H76.3492V72.6932H77.1356L77.2895 73.5795H77.3408C77.5459 73.2557 77.8194 73.017 78.1784 72.8466C78.5375 72.6761 78.9478 72.5909 79.3751 72.5909C80.1445 72.5909 80.7428 72.7784 81.1189 73.1534C81.5121 73.5284 81.7002 74.125 81.7002 74.9432V79.1364H80.7428V79.1193Z" fill="#333333"/>
<path d="M89 72.6932V73.3068L87.8033 73.4432C87.9059 73.5795 88.0085 73.767 88.0939 73.9716C88.1794 74.1932 88.2307 74.4489 88.2307 74.7216C88.2307 75.3523 88.0085 75.8466 87.5811 76.2216C87.1537 76.5966 86.5553 76.7841 85.8031 76.7841C85.6151 76.7841 85.427 76.767 85.2561 76.7329C84.8458 76.9545 84.6406 77.2273 84.6406 77.5511C84.6406 77.7216 84.709 77.8579 84.8629 77.9432C84.9996 78.0284 85.2561 78.0625 85.6151 78.0625H86.7605C87.4614 78.0625 87.9914 78.2159 88.3675 78.5057C88.7436 78.7954 88.9316 79.2216 88.9316 79.7841C88.9316 80.5 88.641 81.0284 88.0768 81.4034C87.5127 81.7784 86.675 81.9659 85.5809 81.9659C84.7432 81.9659 84.0936 81.8125 83.632 81.5057C83.1704 81.1989 82.9482 80.7557 82.9482 80.1761C82.9482 79.7841 83.0678 79.4432 83.3243 79.1704C83.5807 78.8807 83.9226 78.6932 84.3842 78.5909C84.2132 78.5227 84.0765 78.4034 83.9739 78.25C83.8371 78.1136 83.7687 77.9261 83.7687 77.7216C83.7687 77.4829 83.8371 77.2784 83.9568 77.1079C84.0765 76.9375 84.2816 76.767 84.5551 76.5966C84.2303 76.4602 83.9568 76.2216 83.7345 75.8977C83.5294 75.5739 83.4268 75.1989 83.4268 74.7727C83.4268 74.0739 83.632 73.5284 84.0594 73.1534C84.4868 72.7784 85.0851 72.5739 85.8544 72.5739C86.1963 72.5739 86.4869 72.6079 86.7605 72.6932H89V72.6932ZM83.8713 80.1932C83.8713 80.5341 84.0252 80.8068 84.3158 80.9773C84.6064 81.1648 85.0338 81.25 85.5809 81.25C86.4015 81.25 86.9998 81.1307 87.393 80.892C87.7862 80.6534 87.9914 80.3125 87.9914 79.9034C87.9914 79.5625 87.8888 79.3068 87.6665 79.1875C87.4443 79.0511 87.0511 78.9829 86.4528 78.9829H85.2903C84.8458 78.9829 84.5039 79.0852 84.2645 79.3068C84.0252 79.5284 83.8713 79.8011 83.8713 80.1932ZM84.3842 74.7557C84.3842 75.1989 84.5039 75.5398 84.7603 75.7784C85.0167 76.017 85.3757 76.1193 85.8202 76.1193C86.7776 76.1193 87.2563 75.6591 87.2563 74.7386C87.2563 73.767 86.7776 73.2898 85.8031 73.2898C85.3415 73.2898 84.9996 73.4091 84.7432 73.6648C84.5209 73.9034 84.3842 74.2614 84.3842 74.7557Z" fill="#333333"/>
</svg>
